/* XPM */
static char *result[] = {
/* columns rows colors chars-per-pixel */
"32 32 9 1 ",
"  c black",
". c #783206",
"X c #5E5C5A",
"o c #9C4308",
"O c #E88F13",
"+ c #0AE9F5",
"@ c #05F5F1",
"# c #858C8C",
"$ c #006400",
/* pixels */
"$$$$$$$$$$$$$$$$$$$$$$$$$$$$$$$$",
"$$$$$$$$$$$$$$$$$$$$$$$$$$$$$$$$",
"$$$$$$$$$$$$$$$$$$$$$$$$$$$$$$$$",
"$$$$$$$$$$$$$$$$$$$$$$$$$$$$$$$$",
"$$$$$$$$$$$$$$$$$$$$$$$$$$$$$$$$",
"$$$$$$$$$$$$$$$$$$$$$$$$$$$$$$$$",
"$$$$$$$$$$$$      $$$$$$$$$$$$$$",
"$$$$$$$      @@@@      $$$$$$$$$",
"$$$$$   @@@@@##+#@@@@@    $$$$$$",
"$$$$  @@+###+##+##+###@@@  $$$$$",
"$$$$ @##+o          o +##@ $$$$$",
"$$$$ @##oooooo.ooo.ooo+##@ $$$$$",
"$$$$ @## ooooo.ooo..o +##@ $$$$$",
"$$$$ @++ oo.oo.oooo.o +++@ $$$$$",
"$$$$ @## oo.oo.oooo.oo ##@ $$$$$",
"$$$$ @## o..oo.oooo.oo ##@ $$$$$",
"$$$$ @## o.ooo.oooo.oo ##@ $$$$$",
"$$$$ @++ .O...O....O.. ++@ $$$$$",
"$$$$ @## ooooooooooooo ##@ $$$$$",
"$$$$ @## o ooooooooooo ##@ $$$$$",
"$$$$ @## oXooooooooooo ##@ $$$$$",
"$$$$ @++ .X.O...O..... ++@ $$$$$",
"$$$$ @## oXooooooooooo ##@ $$$$$",
"$$$$ @## o ooooooooooo ##@ $$$$$",
"$$$$ @## ooooooooooooo ##@ $$$$$",
"$$$$ @++ .O...O....O.. ++@ $$$$$",
"$$$$ @## ooooooooooooo ##@ $$$$$",
"$$$$ @## ooooooooooooo ##@ $$$$$",
"$$$$ @## ooooooooooooo ##@ $$$$$",
"$$$$$$$$$$$$$$$$$$$$$$$$$$$$$$$$",
"$$$$$$$$$$$$$$$$$$$$$$$$$$$$$$$$",
"$$$$$$$$$$$$$$$$$$$$$$$$$$$$$$$$"
};
