/* XPM */
static char *aa52ab26c6b745e8aabbc448b491fa9eU4vpMUbKhgiJHl9U[] = {
/* columns rows colors chars-per-pixel */
"32 32 2 1",
"  c #006400",
". c #022b02",
/* pixels */
"       .      .       .     .   ",
"                                ",
"           .            .       ",
"                                ",
"          .         .           ",
"                                ",
"       .            .           ",
"               .           .    ",
"                .               ",
"      .    .               .    ",
"                                ",
"         .             .        ",
"   .       .                    ",
"                 .              ",
"                        .       ",
"        .      .                ",
"                                ",
"                                ",
"       .           .   .        ",
"                                ",
"    .                   .       ",
"            .                   ",
"     .         .            .   ",
"                          .     ",
"                  .             ",
"     .                          ",
"            .    .          .   ",
"                                ",
"      .                         ",
"          .                     ",
"                                ",
"                                "
};
