/* XPM */
static char *result[] = {
/* columns rows colors chars-per-pixel */
"32 31 183 2 ",
"   c #1F0C05",
".  c #140B0E",
"X  c #1E170D",
"o  c #0B1517",
"O  c #0E161A",
"+  c #131112",
"@  c #161014",
"#  c gray8",
"$  c #141517",
"%  c #1E1412",
"&  c #1D1717",
"*  c #1D1812",
"=  c #1D1815",
"-  c #1C1916",
";  c #151318",
":  c #121619",
">  c #15191C",
",  c #17181C",
"<  c #16191E",
"1  c #151A1E",
"2  c #161A1E",
"3  c #18181A",
"4  c gray10",
"5  c #1E1818",
"6  c #1D1B1E",
"7  c #181C1F",
"8  c #240F0E",
"9  c #211102",
"0  c #28120C",
"q  c #2F120C",
"w  c #331209",
"e  c #38160D",
"r  c #30180E",
"t  c #221713",
"y  c #261410",
"u  c #201414",
"i  c #261714",
"p  c #281310",
"a  c #2D1312",
"s  c #291411",
"d  c #281512",
"f  c #2D1410",
"g  c #231A15",
"h  c #221A17",
"j  c #271A14",
"k  c #241917",
"l  c #261817",
"z  c #2A1816",
"x  c #2E1914",
"c  c #211819",
"v  c #201B18",
"b  c #211C19",
"n  c #231E1A",
"m  c #201F1D",
"M  c #2A1C1C",
"N  c #3A1713",
"B  c #331B11",
"V  c #3E1D14",
"C  c #3C1E14",
"Z  c #371B1A",
"A  c #20221F",
"S  c #3B2319",
"D  c #3A231D",
"F  c #111A21",
"G  c #161B21",
"H  c #151C22",
"J  c #101F26",
"K  c #191D21",
"L  c #191E21",
"P  c #191F22",
"I  c #1E1E20",
"U  c #1E1F23",
"Y  c #221D21",
"T  c #211F22",
"R  c #192325",
"E  c #1B2026",
"W  c #1C2126",
"Q  c #17262D",
"!  c #202022",
"~  c #202328",
"^  c #3B2C29",
"/  c #363032",
"(  c #3C3334",
")  c #431D12",
"_  c #582C1F",
"`  c #4D2726",
"'  c #4B2E28",
"]  c #502D2B",
"[  c #48312B",
"{  c #48302C",
"}  c #56312B",
"|  c #704034",
" . c #734B3F",
".. c #4F4747",
"X. c #504241",
"o. c #514544",
"O. c #4B5053",
"+. c #4F5052",
"@. c #4F545A",
"#. c #525254",
"$. c #545358",
"%. c #545359",
"&. c #515659",
"*. c #50545D",
"=. c #56575C",
"-. c #5C575E",
";. c #555A5E",
":. c #545C5F",
">. c #694E47",
",. c #6C4E46",
"<. c #624F4B",
"1. c #694B4B",
"2. c #724540",
"3. c #655244",
"4. c #655146",
"5. c #766355",
"6. c #796B5E",
"7. c #475965",
"8. c #485960",
"9. c #5B5C60",
"0. c #536066",
"q. c #5E7178",
"w. c #6F6564",
"e. c #6B696C",
"r. c #7B6967",
"t. c #756B6C",
"y. c #786E6F",
"u. c #7D6D6D",
"i. c #616E74",
"p. c #606F76",
"a. c #766D70",
"s. c #6B7074",
"d. c #6D7075",
"f. c #6C7175",
"g. c #6D7276",
"h. c #6F7478",
"j. c #717173",
"k. c #727176",
"l. c #767477",
"z. c #777D7D",
"x. c #8C6256",
"c. c #8A685C",
"v. c #8E6561",
"b. c #657680",
"n. c #657584",
"m. c #758386",
"M. c #738289",
"N. c #77848A",
"B. c #798289",
"V. c #858995",
"C. c #A88583",
"Z. c #B0A69A",
"A. c #8894A2",
"S. c #9EA8B1",
"D. c #AFA8A2",
"F. c #A5A6AA",
"G. c #ABA7A8",
"H. c #A2A9AF",
"J. c #B0A4A6",
"K. c #B1A7A6",
"L. c #A1AAB3",
"P. c #A5ACB6",
"I. c #A9ACB1",
"U. c #A7ADB9",
"Y. c #B4B2B3",
"T. c #C2A4A2",
"R. c #C5C0BD",
"E. c #CCC3BE",
"W. c #BEC3C9",
"Q. c #B9C5D3",
"!. c #BCCCDB",
"~. c #C5CAD0",
"^. c #C9D3DD",
"/. c #CAD3DC",
"(. c #DBD9DC",
"). c #DADADC",
"_. c #DEDCDF",
"`. c #E5E1E2",
"'. c #E1E2E4",
"]. c #E6E6E8",
"[. c #E8E6E9",
"{. c #FFF9FB",
"}. c #006400",
/* pixels */
"}.}.}.}.}.}.}.}.}.}.}.}.}.}.}.}.}.}.}.}.}.}.}.}.}.}.}.}.}.}.}.}.",
"}.}.}.}.}.}.}.}.}.}.}.}.}.}.}.}.}.}.}.}.}.}.}.}.}.}.}.}.}.}.}.}.",
"}.}.}.}.}.}.}.}.}.}.}.}.}.}.}.}.}.}.}.}.}.}.}.}.}.}.}.}.}.}.}.}.",
"}.}.}.}.}.}.}.}.}.}.}.}.}.}.}.}.}.}.}.}.}.}.}.}.}.}.}.}.}.}.}.}.",
"}.}.}.}.}.}.}.}.}.}.}.}.}.}.O R P }.}.}.}.}.}.}.}.}.}.}.}.}.}.}.",
"}.}.}.}.}.}.}.}.}.}.}.}.}., 0.p.H ~ }.}.}.}.}.}.}.}.}.}.}.}.}.}.",
"}.}.}.}.}.}.}.}.}.}.}.}.T ~.b.7.F s.W }.}.}.}.}.}.}.}.}.}.}.}.}.",
"}.}.}.}.}.}.}.}.}.}.}.- F./.!.n.L.G f.K }.}.}.}.}.}.}.}.}.}.}.}.",
"}.}.}.}.}.}.}.}.}.}.A z.H.^.Q.A.P.@.h.2 }.}.}.}.}.}.}.}.}.}.}.}.",
"}.}.}.}.}.}.}.}.}.}.o m.N.S.U.V.*.1 g.L }.}.}.}.}.}.}.}.}.}.}.}.",
"}.}.}.}.}.}.}.}.; E J q.M.B.%.-.=.< d.7 }.}.}.}.}.}.}.}.}.}.}.}.",
"}.}.}.}.}.}.}.k Y W.Q 8.i.;.@ . $.> 9.+.$ }.}.}.}.}.}.}.}.}.}.}.",
"}.}.}.}.}.}.j t R.# O.:.&.I {./ [.'.3 #.! }.}.}.}.}.}.}.}.}.}.}.",
"}.}.}.}.}.}.% E.g D.n b 5 G.`._.(.).].4 }.}.}.}.}.}.}.}.}.}.}.}.",
"}.}.}.}.}.}.}.* Z.9 5.4.y w.k.I.j.Y.+ }.}.}.}.}.}.}.}.}.}.}.}.}.",
"}.}.}.}.}.}.}.}.X 6.3.r [ z t.a.J.u ( & }.}.}.}.}.}.}.}.}.}.}.}.",
"}.}.}.}.}.}.}.}.}.m h ^ { q e } ] 1.8 M }.}.}.}.}.}.}.}.}.}.}.}.",
"}.}.}.}.}.}.}.}.}.: e.K.x V _ | 2.` Z r.v }.}.}.}.}.}.}.}.}.}.}.",
"}.}.}.}.}.}.}.}.}.U l.y.p ,. .x.v.C.a u.= }.}.}.}.}.}.}.}.}.}.}.",
"}.}.}.}.}.}.}.}.}.}.6 c <.>.c.) N T.s l }.}.}.}.}.}.}.}.}.}.}.}.",
"}.}.}.}.}.}.}.}.}.}.}...i D C w ' f d o.}.}.}.}.}.}.}.}.}.}.}.}.",
"}.}.}.}.}.}.}.}.}.}.}.}.X.  S B 0 }.}.}.}.}.}.}.}.}.}.}.}.}.}.}.",
"}.}.}.}.}.}.}.}.}.}.}.}.}.}.}.}.}.}.}.}.}.}.}.}.}.}.}.}.}.}.}.}.",
"}.}.}.}.}.}.}.}.}.}.}.}.}.}.}.}.}.}.}.}.}.}.}.}.}.}.}.}.}.}.}.}.",
"}.}.}.}.}.}.}.}.}.}.}.}.}.}.}.}.}.}.}.}.}.}.}.}.}.}.}.}.}.}.}.}.",
"}.}.}.}.}.}.}.}.}.}.}.}.}.}.}.}.}.}.}.}.}.}.}.}.}.}.}.}.}.}.}.}.",
"}.}.}.}.}.}.}.}.}.}.}.}.}.}.}.}.}.}.}.}.}.}.}.}.}.}.}.}.}.}.}.}.",
"}.}.}.}.}.}.}.}.}.}.}.}.}.}.}.}.}.}.}.}.}.}.}.}.}.}.}.}.}.}.}.}.",
"}.}.}.}.}.}.}.}.}.}.}.}.}.}.}.}.}.}.}.}.}.}.}.}.}.}.}.}.}.}.}.}.",
"}.}.}.}.}.}.}.}.}.}.}.}.}.}.}.}.}.}.}.}.}.}.}.}.}.}.}.}.}.}.}.}.",
"}.}.}.}.}.}.}.}.}.}.}.}.}.}.}.}.}.}.}.}.}.}.}.}.}.}.}.}.}.}.}.}."
};
