/* XPM */
static char *_5bd32c5d8cc4ab09850d02f1ba13fe7iXsHkAuQ3WTI7gw2[] = {
/* columns rows colors chars-per-pixel */
"32 32 2 1 ",
"  c #593120",
". c #9C4117",
/* pixels */
"................................",
"... ................... ..... ..",
".. ..... .......................",
"........... .... .........  ....",
".... ...... ....................",
"............. ....... ..........",
"...........  ...................",
" ... ............. .... ... .  .",
"........  ................ .....",
".......  . ........ ..... ......",
"...  ..... ........ .... . .. ..",
"... .........    .. ... ..... ..",
".... ... ............. ...... ..",
"....   ............... ...... ..",
".........  ...  .. . .  . ... ..",
"........ . .......... ..... . ..",
". .     . ......... ......... ..",
". ..  .   ................ .....",
". ..     ...  ..................",
"....        ........  ..... ....",
"....   .............  ..........",
"....                 ...........",
"... .....  .......... ..........",
"........... ....................",
".. . ........................ ..",
"...................  ..... .. ..",
".... ............... ....... ...",
"....                ........ ...",
"  .  ............. .............",
". .. ..... ........... .... .. .",
"...... ............ .. .........",
".  ........ ........  ...... ..."
};
